<?xml version="1.0" encoding="UTF-8"?>
<svg id="Layer_2" data-name="Layer 2" xmlns="http://www.w3.org/2000/svg" xmlns:xlink="http://www.w3.org/1999/xlink" viewBox="0 0 177.11 102.93">
  <defs>
    <style>
      .cls-1 {
        fill: url(#linear-gradient-3);
      }

      .cls-1, .cls-2, .cls-3, .cls-4 {
        stroke: #231f20;
        stroke-miterlimit: 10;
      }

      .cls-2 {
        fill: url(#linear-gradient-4);
      }

      .cls-3 {
        fill: url(#linear-gradient);
      }

      .cls-4 {
        fill: url(#linear-gradient-2);
      }
    </style>
    <linearGradient id="linear-gradient" x1=".5" y1="51.47" x2="84.79" y2="51.47" gradientUnits="userSpaceOnUse">
      <stop offset="0" stop-color="#602874"/>
      <stop offset="1" stop-color="#8660a9"/>
    </linearGradient>
    <linearGradient id="linear-gradient-2" x1="89.13" y1="51.57" x2="176.61" y2="51.57" xlink:href="#linear-gradient"/>
    <linearGradient id="linear-gradient-3" x1="35.88" y1="52.09" x2="82.72" y2="52.09" xlink:href="#linear-gradient"/>
    <linearGradient id="linear-gradient-4" x1="74.83" y1="54.2" x2="141.67" y2="54.2" xlink:href="#linear-gradient"/>
  </defs>
  <g id="Layer_2-2" data-name="Layer 2">
    <g>
      <path class="cls-3" d="M.5,76.39l50.83,25.98,27.12-14.12-11.27-6.12-16.33,7.71-38.62-19.75.13-37.65L48.81,12.59l25.88,13.57,10.11-5.73L48.58.57.5,26.74v49.65Z"/>
      <path class="cls-4" d="M89.13,22.72L129.02.79l47.6,25.81v49.82s-51.18,25.93-51.18,25.93l-32.69-16.93,12.61-6.85,21.15,10.71,39.79-19.67s.17-36.96,0-37.12-37.06-20.31-37.06-20.31l-29.83,16.07-10.27-5.51Z"/>
      <polygon class="cls-1" points="47.83 80.06 36.11 74.17 35.88 24.12 51.44 31.43 59.33 49.42 66.61 33.51 82.49 24.79 82.72 71.04 71.27 77.23 70.94 47.17 59.61 69.17 47.64 47.95 47.83 80.06"/>
      <polygon class="cls-2" points="74.83 78.95 88 71.7 88.33 27.95 105.12 30.38 115.89 51.15 125.42 31.04 141.67 24.12 141.08 74.12 129.67 79.62 129.42 46.54 116.17 71.54 102.08 45.7 102.42 74.37 83.92 84.29 74.83 78.95"/>
    </g>
  </g>
</svg>