<?xml version="1.0" encoding="utf-8"?>
<!-- Generator: Adobe Illustrator 26.0.3, SVG Export Plug-In . SVG Version: 6.00 Build 0)  -->
<svg version="1.0" id="Layer_1" xmlns="http://www.w3.org/2000/svg" xmlns:xlink="http://www.w3.org/1999/xlink" x="0px" y="0px"
	 viewBox="0 0 924 642.2" style="enable-background:new 0 0 924 642.2;" xml:space="preserve">
<style type="text/css">
	.st0{fill:#CC0000;}
</style>
<path class="st0" d="M105.5,168c-1.7,0-2.2,2.3-2.2,5.7l-1.5,98.4c-0.2,14.5-0.8,19.3-5.2,20.6c-2.3,0.6-1.4,0.8-3.6,0.8
	c-1.7,0-2.7,0.4-2.7,1.3c0,1.5,1.5,1.7,3.7,1.7c8.6,0,12.6-0.5,14-0.5c3.2,0,5.9,0.5,16.7,0.5c2.3,0,3.8-0.3,3.8-1.7
	c0-1-1-1.3-2.8-1.3c-2.7,0-1.9-0.1-4.8-1.2c-3.3-1.2-5.5-5.5-5.8-18.5l-1.8-69.8h0.5c3,3.2,21.4,23.9,39.6,41.9
	c17.3,17.1,38.6,38.9,49,48.9c1.8,1.8,3.8,3.7,5.7,3.7c1.5,0,2.2-1.5,2.2-5.1l1.8-105c0.2-9.3,1.5-12.8,6.1-14.1
	c2-0.5,0.3-0.1,1.9-0.5c1.9-0.5,3-0.5,3-1.5c0-1.3-1.7-1.5-3.8-1.5c-8.1,0-11.3,0.5-13.1,0.5c-3.5,0-7.6-0.5-16.2-0.5
	c-2.5,0-4.3,0.2-4.3,1.5c0,1,0.7,1.5,2.6,1.5c1.7-0.1,3.4,0.2,4.9,1c4,1.7,5.5,4.8,5.6,15l1.7,74.7h-0.9
	c-2.8-2.6-25.2-26.6-36.6-37.9c-24.2-24.1-49.5-51.2-51.5-53.4C108.9,170.2,107.4,168,105.5,168z M557.4,168.5c-1,0-1.5,1-2,3.1
	c-0.3,1.3-3.5,16.5-3.5,19.1c0,1.8,0.3,2.6,1.5,2.6c1,0,1.5-0.7,1.8-2c0.6-2.1,1.6-4.1,2.8-5.8c2.5-3.6,6.5-4.5,16.1-4.8l24.8-0.7
	v68.2c0,15.3,0,30.4-0.8,37.4c-0.5,4.8-1.3,8.1-4.8,9.2c-2.4,0.5-4.8,0.7-7.3,0.7C310.5,302.3,86.5,454.8,87,455.5
	c0.5,0.7,1.4,0.9,2.1,0.4c0,0,0,0,0,0c1.8-1.2,189.6-122.8,492.7-145.5c92.3-6.9,148.5-9,149-9c0.8,0,1.5-0.5,1.6-1.2
	c0.1-0.6-22-5.7-101.5-5.3c-1.4-0.1-2.8-0.3-4-0.5c-5-0.6-6-4.3-6.5-9c-0.8-7.1-0.8-21.9-0.8-37.2v-68.1l20.9,0.5
	c14.8,0.3,19.3,5,19.6,9.3l0.2,1.8c0.2,2.5,0.5,3.3,1.9,3.3c1,0,1.3-1,1.5-2.7c0-4.3,0.5-15.8,0.5-19.3c0-2.5-0.2-3.5-1.3-3.5
	c-1.5,0.2-3,0.5-4.5,0.8c-3.8,0.6-7.6,0.8-11.5,0.8h-65.8c-5.5,0-11.8-0.3-16.6-0.8C560.4,170.2,558.7,168.5,557.4,168.5
	L557.4,168.5z M304.4,170.9c-2.5,0-3.7,0.3-3.7,1.5s1,1.5,2.8,1.5c1.7-0.1,3.3,0.1,4.9,0.5c5.5,1.2,5.2,3.8,5.6,9.5
	c0.3,5.3,0.3,10,0.3,35.3v47.7c0,32.6,0.2,49.2-12.5,62c-2.3,2.5-5,4.6-8,6.3c-2.8,1.5-3.7,2.2-3.7,3c0,0.7,0.6,1.3,1.3,1.3
	c0,0,0,0,0,0c1.2-0.1,2.3-0.4,3.3-1c2.8-1.3,5.6-2.7,8.3-4.3c16-9.8,24.8-21.3,28.3-31.4c3.3-9.3,4-20,4-29.5
	c0-8.3-0.5-16.3-0.5-23.5v-30.7c0-25.3,0-30,0.3-35.3c0.3-5.8,0.9-8.6,5.4-9.5c1.1-0.3,2.2-0.4,3.3-0.5c2-0.2,3-0.4,3-1.5
	s-1.2-1.5-3.5-1.5c-6.5,0-14.6,0.5-18.6,0.5C320.5,171.4,313.2,170.9,304.4,170.9L304.4,170.9z M432.4,170.9c-2.6,0-4,0.3-4,1.3
	c0,1.3,1,1.7,2.7,1.7c1.5,0,3,0.2,4.4,0.6c3.7,0.9,4.5,3.7,4.9,9.3c0.3,5.3,0.3,10,0.3,35.3v29.3c0,16.1,0,29.3-0.8,36.2
	c-0.5,4.8-0.7,7.7-4,8.3c-1.4,0.5-2.9,0.7-4.4,0.7c-2,0-2.6,0.5-2.6,1.3c0,1.1,1.2,1.7,3.3,1.7c6.6,0,14.8-0.5,18.6-0.5
	c4.5,0,11.8,0.5,22.8,0.5c1.8,0,3.2-0.5,3.2-1.7c0-0.8-0.8-1.3-2.7-1.3c-1.8,0-3.6-0.3-5.4-0.7c-5-0.6-6.1-3.7-6.6-8.1
	c-0.7-7.2-0.7-20.3-0.7-36.4v-29.2c0-25.3,0-30,0.3-35.3c0.3-5.8,0.9-8.6,5.4-9.5c1.1-0.3,2.3-0.5,3.5-0.5c1.6,0,2.7-0.4,2.7-1.7
	c0-1-1.3-1.3-3.5-1.3c-6.3,0-13.8,0.5-17.9,0.5C446.8,171.4,438.6,170.9,432.4,170.9L432.4,170.9z M738.8,365.2
	c-1.9,0-3.4,1.5-3.4,3.4c0,2,1.5,3.7,3.5,3.8c2,0,3.6-1.7,3.5-3.6C742.4,366.8,740.8,365.2,738.8,365.2L738.8,365.2L738.8,365.2z
	 M414.4,366.4c-1.6,0.1-3.2,0.2-4.8,0.1v24.6l-0.3-0.4c-6.9-8.7-13.4-16.5-19.8-24.1c0,0-4.2,0-4.7,0c0.1,1.2,0.2,6.8,0.2,33.6
	c0.4,0,1.5-0.1,5-0.1c-0.1-0.9-0.1-5-0.1-24.2v-0.5l20.1,24.7c0.3-0.1,1.3-0.1,4.6-0.1C414.4,398.9,414.4,393.2,414.4,366.4
	L414.4,366.4z M509.9,366.4c-0.5,0-1.9,0.1-6.2,0.1v31.6c0.1,2-0.3,4.1-1.1,5.9c-0.5,0.9-1.4,1.6-2.4,1.8c0,0.3,0,1.1,0.1,3.8
	c6-0.3,9.6-4.6,9.6-11.5V366.4z M658,366.4c-0.5,0-1.9,0.1-6.2,0.1v33.6c0.5-0.1,1.9-0.1,6.4-0.1C658.1,398.8,658,393.2,658,366.4z
	 M804,368.9c0,0.1-1.4,0.5-1.4,0.5l-4.4,1v5.6c-0.1,0.2-0.2,0.3-3.5,0.3c0.1,0.9,0.2,1.8,0.1,2.8c0.3,0,1-0.1,3.1-0.1
	c0.3,0.1,0.3,0.2,0.3,14.2c0,5,2.5,7.5,7.4,7.5c2.1,0,4.1-0.5,6-1.4c-0.4-0.9-0.7-1.8-1-2.7c-0.8,0.6-1.8,0.9-2.8,0.9
	c-2.5,0-3.7-2-3.7-6.1v-12c0.1-0.2,0.2-0.3,6.5-0.3c-0.1-0.9-0.2-1.8-0.1-2.8c-0.5,0-1.8,0.1-6.1,0.1C804,376.2,804,376.2,804,368.9
	z M724.1,369c-0.5,0.2-2,0.5-5.8,1.4v5.6c-0.1,0.2-0.2,0.3-3.5,0.3c0.1,0.9,0.1,1.8,0.1,2.8c0.3,0,1-0.1,3.1-0.1
	c0.3,0.1,0.3,0.2,0.3,14.2c0,5,2.5,7.5,7.4,7.5c2.1,0,4.1-0.5,6-1.4c-0.4-0.9-0.7-1.8-1-2.7c-0.8,0.6-1.9,0.9-2.9,0.9
	c-2.5,0-3.7-2-3.7-6.1v-12c0.1-0.2,0.2-0.3,6.5-0.3c-0.1-0.9-0.2-1.8-0.1-2.8c-0.5,0-1.8,0.1-6.1,0.1
	C724.1,376.2,724.1,376.1,724.1,369L724.1,369z M756.2,369c-0.5,0.2-1.9,0.5-5.8,1.4v5.6c-0.1,0.2-0.2,0.3-3.5,0.3
	c0,0.3,0.1,1.1,0.1,2.8c0.3,0,1-0.1,3.1-0.1c0.3,0.1,0.3,0.2,0.3,14.2c0,5,2.5,7.5,7.4,7.5c2.1,0,4.1-0.5,6-1.4
	c-0.4-0.9-0.7-1.8-1-2.7c-0.8,0.6-1.9,0.9-2.9,0.9c-2.5,0-3.7-2-3.7-6.1v-12c0.1-0.2,0.2-0.3,6.5-0.3c-0.1-0.9-0.1-1.8-0.1-2.8
	c-0.5,0-1.8,0.1-6,0.1C756.3,376.2,756.2,376.1,756.2,369L756.2,369z M433.2,375.7c-7.1,0-12.1,4.9-12.1,12
	c0,7.6,5.2,12.9,12.5,12.9c3.2-0.1,6.4-0.9,9.2-2.6c-0.2-0.3-0.6-1-1.7-2.9c-1.8,1.3-4,2-6.3,2c-2,0-3.9-0.8-5.2-2.2
	c-1.5-1.7-2.4-3.9-2.2-6.1c0.1-0.2,0.2-0.3,16.1-0.3c0-4.1-1.1-7.7-3.2-9.9C438.4,376.7,435.8,375.6,433.2,375.7L433.2,375.7z
	 M528.8,375.7c-7.2,0-12.1,4.9-12.1,12c0,7.6,5.2,12.9,12.5,12.9c3.2-0.1,6.4-0.9,9.2-2.6c-0.2-0.3-0.6-1-1.7-2.9
	c-1.8,1.3-4.1,2-6.3,2c-2,0-3.8-0.8-5.2-2.2c-1.6-1.7-2.4-3.9-2.2-6.1c0.1-0.2,0.1-0.3,16.1-0.3c0-4.1-1.1-7.7-3.2-9.9
	C534,376.7,531.4,375.6,528.8,375.7L528.8,375.7z M556.4,375.7c-1.8,0-3.1,1.7-3.9,2.7l-0.1,0.1l-1.3,1.9c-0.6,0-0.7-3.8-0.7-4.3
	c-0.5,0.1-2,0.1-6,0.1c0.1,1,0.2,5.4,0.2,23.9c0.6-0.1,2-0.1,5.9-0.1c0-0.6-0.1-2.9-0.1-11.7c0-4.6,1.8-7.4,4.8-7.4
	c1.1,0,2.1,0.3,3,0.8c0.1-0.3,0.6-1.2,2.2-4.2C559.3,376.4,557.9,375.9,556.4,375.7L556.4,375.7z M572.2,375.7
	c-4.6,0-8.1,2.8-8.1,6.4c0,2.8,1.8,4.6,4.5,6.5l1.1,0.8c2,1.4,3.9,2.6,3.9,4.7c0,2.5-2.1,3.4-3.9,3.4c-2.1,0-4.3-1.5-5.3-2.2
	c-0.1,0.3-0.6,1.1-1.8,3.1c2.4,1.4,5.1,2.2,7.9,2.3c5.2,0,8.8-3.5,8.8-6.7c0-2.6-1.4-4.9-4.3-7.1l-1.6-1.1c-2.1-1.5-3.7-2.5-3.7-4.2
	c0-2,1.7-2.8,3.3-2.8c1.5,0.1,2.9,0.6,4.1,1.5c0.2-0.3,0.6-1,1.9-2.7C576.9,376.3,574.5,375.7,572.2,375.7L572.2,375.7z
	 M595.8,375.7c-7.1,0-12.1,4.9-12.1,12c0,7.6,5.2,12.9,12.5,12.9c3.2-0.1,6.4-0.9,9.2-2.6c-0.2-0.3-0.6-1-1.7-2.9
	c-1.8,1.3-4,2-6.3,2c-2,0-3.8-0.8-5.2-2.2c-1.5-1.7-2.4-3.9-2.3-6.1c0.2-0.2,0.2-0.3,16.2-0.3c0-4.1-1.1-7.7-3.2-9.9
	C601,376.7,598.5,375.7,595.8,375.7L595.8,375.7z M680.5,375.7c-3,0-6,1.2-8.1,3.4l-0.3,0.3l-0.3-0.4v-2.8c-2,0.2-4,0.2-6,0.1
	c0.1,1,0.2,5.4,0.2,23.9c0.5-0.1,2-0.1,5.9-0.1c0-0.7-0.1-3.3-0.1-14.2c0-3.9,2.4-6.4,6-6.4c3.4,0,5.2,2.1,5.2,6v14.8
	c0.6-0.1,2-0.1,6-0.1c-0.1-0.7-0.1-3.5-0.2-15.4C688.9,378.7,686.1,375.7,680.5,375.7L680.5,375.7z M704.2,375.7
	c-4.6,0-8.1,2.8-8.1,6.4c0,2.8,1.7,4.6,4.5,6.5l1.1,0.8c2,1.4,3.9,2.6,3.9,4.7c0,2.5-2,3.4-3.8,3.4c-2.1,0-4.3-1.5-5.3-2.2
	c-0.2,0.3-0.6,1.1-1.8,3.1c2.4,1.4,5.1,2.2,7.9,2.3c5.2,0,8.8-3.5,8.8-6.7c0-2.6-1.4-4.9-4.4-7.1l-1.6-1.1c-2.1-1.5-3.6-2.5-3.6-4.2
	c0-2,1.7-2.8,3.3-2.8c1.5,0.1,2.9,0.6,4.1,1.5c0.6-0.9,1.2-1.9,1.8-2.7C708.9,376.3,706.5,375.7,704.2,375.7L704.2,375.7z
	 M826.7,375.7c-7.1,0-12.1,4.9-12.1,12c0,7.6,5.2,12.9,12.5,12.9c3.2-0.1,6.4-0.9,9.2-2.6c-0.6-1-1.2-1.9-1.7-2.9
	c-1.9,1.3-4.1,2-6.3,2c-2,0-3.8-0.8-5.2-2.2c-1.6-1.7-2.4-3.9-2.2-6.1c0.1-0.2,0.2-0.3,16.1-0.3c0-4.1-1.1-7.7-3.2-9.9
	C831.9,376.6,829.4,375.6,826.7,375.7L826.7,375.7z M451.5,375.7c-1.8,0.5-3.7,1-5.5,1.2c0.4,0.9,1.9,4.9,8.7,23.2
	c1.4-0.1,2.7-0.1,4.1-0.1c0,0,0,0,0,0c0-0.3,0.1-0.5,0.1-0.7c1.9-5,3.9-10.3,5.8-16.3v-0.2l0.2,0.1c0.2,0.1,0.3,0.1,6.4,16.4
	c0,0,0.3,0.6,0.3,0.8c0.3,0,1.4,0,4.9-0.1l0,0c0-0.6,7.4-21,8.4-23.6c-0.6,0-1.9-0.2-5-0.6l0,0c-0.1,0.3-0.1,0.5-0.2,0.8
	c-1.7,5-3.3,10.2-4.9,16.2c0,0.1-0.1,0.2-0.2,0.3c-0.2,0-0.3,0-0.5-0.1c-2.1-6.5-4.2-11.7-6.3-16.8c-1.4,0.1-2.9,0.1-4.3,0.1l0,0
	c-0.1,0.3-0.1,0.7-0.2,1c-1.9,4.8-3.9,9.7-5.8,15.6l-0.1,0.2l-0.2-0.1c-0.2-0.1-0.3-0.1-5.4-16.4C451.8,376.6,451.6,376,451.5,375.7
	L451.5,375.7z M614.4,375.7c-1.9,0.5-3.9,0.9-5.8,1.1c0.5,0.9,2.1,4.8,9.2,21.8c-2.5,8.2-4.9,9.9-8.2,9.9H608
	c0.2,1.2,0.2,2.5,0.2,3.8c0.2,0,0.8-0.1,2.3-0.1c6.5,0,9.5-6.6,10.4-8.7c0,0,10.8-24.2,11.9-26.9c-0.5,0-1.8-0.2-5-0.9
	c-0.1,0.3-0.4,1.3-0.4,1.3c-1.8,4.5-4,10.1-6,16.5c-0.1,0.2-0.4,0.3-0.6,0.1c0,0,0,0,0,0c-2-6.6-4.1-12-6.1-17.3L614.4,375.7z
	 M773.7,376.1c-0.5,0.1-2,0.1-5.9,0.1c0.1,0.7,0.1,3.5,0.1,15.4c0,5.8,2.8,8.9,7.9,8.9c2.8,0,5.1-1.1,7.5-3.5c0.3,0,0.5,0.1,0.6,3.1
	c0.5-0.1,2-0.1,6-0.1c-0.1-1-0.2-5.4-0.2-23.9c-0.5,0-1.8,0.1-6,0.1l0.2,13.8c0,4.6-2.7,6.7-5.2,6.7c-3.1,0-4.9-2.2-4.9-6
	L773.7,376.1L773.7,376.1z M741.8,376.1c-0.5,0-1.8,0.1-5.8,0.1v23.9c2-0.2,4-0.2,6-0.1C741.9,399,741.8,394.6,741.8,376.1
	L741.8,376.1z M433.1,378.6c1.2-0.1,2.4,0.4,3.3,1.3c1,1.1,1.5,3,1.4,5.3c-0.1,0.2-0.1,0.3-10,0.3c-0.1,0-0.2-0.8-0.2-0.8l0,0
	c-0.1-1.7,0.5-3.3,1.7-4.6C430.2,379.1,431.6,378.6,433.1,378.6L433.1,378.6z M528.6,378.6c1.2-0.1,2.4,0.4,3.3,1.3
	c1.1,1.1,1.5,3,1.4,5.3c-0.1,0.2-0.2,0.3-10,0.3c-0.4-1.9,0.1-3.9,1.5-5.4C525.8,379.1,527.2,378.6,528.6,378.6L528.6,378.6z
	 M595.7,378.6c1.2-0.1,2.4,0.4,3.3,1.3c1.1,1.1,1.5,3,1.4,5.3c-0.2,0.2-0.2,0.3-10,0.3c-0.1,0-0.2-0.8-0.2-0.8l0,0
	c-0.1-1.7,0.5-3.3,1.6-4.6C592.8,379.1,594.2,378.6,595.7,378.6L595.7,378.6z M826.6,378.6c1.2-0.1,2.4,0.4,3.3,1.3
	c1.1,1.1,1.5,3,1.4,5.3c-0.1,0.2-0.2,0.3-10,0.3c-0.1,0-0.2-0.8-0.2-0.8c-0.1-1.7,0.5-3.3,1.7-4.6
	C823.7,379.1,825.1,378.6,826.6,378.6L826.6,378.6z M529.2,426.5c-0.4,0-1.8,0.1-5.8,0.1V462c0.6-0.1,2-0.1,6-0.1
	c-0.1-0.7-0.1-3.3-0.1-14.2c0-3.9,2.3-6.5,6-6.5c3.4,0,5.2,2.1,5.2,6V462c0.6-0.1,2-0.1,5.9-0.1c0-0.7-0.1-3.5-0.1-15.4
	c0-5.9-2.8-8.9-8.4-8.9c-3-0.1-6,1.2-8.1,3.4C529.5,441,529.3,440.9,529.2,426.5L529.2,426.5z M613.3,426.6V462c0.6-0.1,2,0,6,0
	c-0.2-1.2-0.1-35.4-0.1-35.4S617.3,426.7,613.3,426.6L613.3,426.6z M425.9,426.6c-3,0-8.1,1.8-8.1,8.4v2.8c-0.1,0.2-0.2,0.3-4,0.3
	c0.1,0.9,0.2,1.8,0.1,2.8c0.3,0,1.1-0.1,3.5-0.1c0.3,0.2,0.3,19.6,0.3,21.2c0.6-0.1,2-0.1,6-0.1c-0.1-0.8-0.1-4.2-0.1-20.8
	c0.1-0.2,0.2-0.3,6-0.3c-0.1-0.9-0.2-1.8-0.1-2.8c-0.4,0-1.6,0.1-5.5,0.1c-0.2-0.1-0.3-0.1-0.3-4.3c0-3.9,3.1-4,3.5-4l2.8,0.5
	c-0.2,0-0.1-0.5,0.8-3C429.1,426.9,427.5,426.7,425.9,426.6L425.9,426.6z M472.5,428.2c-1,0.1-5.4,0.1-26.5,0.1h-1l0.1,4
	c0.6,0,2.5-0.1,10.2-0.1c0.3,0.2,0.3,27.4,0.3,29.7c0.6-0.1,2.1-0.1,6.3-0.2c0-0.1-0.1-2.2-0.1-29.2c0.2-0.3,9.7-0.3,10.7-0.3
	C472.4,430.9,472.4,429.6,472.5,428.2L472.5,428.2z M398.4,437.5c-6,0-12.5,4.3-12.5,12.1c0,7.5,5.1,12.8,12.5,12.8
	s12.5-5.3,12.5-12.8C410.8,441.9,404.4,437.6,398.4,437.5L398.4,437.5z M484.2,437.5c-7.1,0-12.1,4.9-12.1,12
	c0,7.6,5.1,12.9,12.5,12.9c3.2-0.1,6.4-1,9.1-2.6c-0.6-0.9-1.2-1.9-1.7-2.9c-1.8,1.3-4.1,2-6.3,2c-2,0-3.8-0.8-5.2-2.2
	c-1.6-1.7-2.4-3.9-2.2-6.1c0.2-0.2,0.2-0.3,16.1-0.3c0-4.1-1.1-7.7-3.2-9.9C489.4,438.5,486.8,437.5,484.2,437.5L484.2,437.5z
	 M512.2,437.5c-8.9,0-13.5,6.3-13.5,12.5c0,4.3,2.8,12.4,13.1,12.4c2.3,0,4.6-0.7,6.6-1.8c-0.1-0.3-0.4-1.1-1.2-3.2
	c-1.3,0.9-2.9,1.3-4.5,1.3c-4.6,0-7.7-3.6-7.7-9c0-5.9,3.9-8.5,7.7-8.5c1.5,0.1,2.9,0.4,4.2,1c0.4-1.2,0.8-2.4,1.4-3.5
	C516.3,438,514.3,437.6,512.2,437.5L512.2,437.5z M568.1,437.5c-3-0.1-6,1.2-8.1,3.4l-0.3,0.3l-0.3-0.4V438c-2,0.2-4,0.2-6,0.1
	c0.2,1,0.2,5.4,0.2,23.9c0.5-0.1,2-0.1,5.9-0.1c0-0.7-0.1-3.3-0.1-14.2c0-3.9,2.4-6.5,6-6.5c3.4,0,5.2,2.1,5.2,6V462
	c0.6-0.1,2-0.1,6-0.1c-0.1-0.7-0.1-3.5-0.1-15.4C576.4,440.6,573.6,437.6,568.1,437.5L568.1,437.5z M594.9,437.5
	c-6,0-12.5,4.3-12.5,12.1c0,7.5,5.1,12.8,12.5,12.8c7.3,0,12.5-5.3,12.5-12.8C607.4,441.9,600.9,437.6,594.9,437.5L594.9,437.5z
	 M637.5,437.5c-6,0-12.5,4.3-12.5,12.1c0,7.5,5.1,12.8,12.5,12.8s12.5-5.2,12.5-12.7C650,441.9,643.6,437.6,637.5,437.5L637.5,437.5
	z M665.6,437.5c-6.8,0-11,6.3-11,12.1c0,7.6,4.2,12.8,10.4,12.8c3-0.1,5.8-1.5,7.6-4c0.4-0.1,0.5-0.1,0.7,3.4c0,5.4-3,8.7-7.9,8.7
	c-2.9,0.1-5.8-0.6-8.4-2c-0.3,1.3-0.6,2.5-1.1,3.7c3.2,1.2,6.6,1.8,10,1.8c4.9,0,13.3-1.8,13.3-14v-22c-0.6,0.1-2,0.1-5.9,0.1
	c0,0.3,0,0.9,0.1,2.6v0.5l-0.3-0.4C671.1,438.8,668.4,437.6,665.6,437.5L665.6,437.5z M689.1,437.5c-1.9,0.5-3.9,0.9-5.8,1.2
	c0.4,0.9,2,4.7,9.2,21.8c-2.5,8.2-5,9.8-8.3,9.8h-1.5c0.1,1.3,0.2,2.5,0.2,3.8c0.2,0,0.8-0.1,2.4-0.1c6.5,0,9.4-6.5,10.4-8.7
	c0,0,0,0,11.9-26.8c-0.5,0-1.8-0.2-5-0.9l-0.6,1.5c-2.1,5.6-4,10.4-5.9,16.3c-0.1,0.2-0.4,0.3-0.6,0.2c0,0,0,0-0.1,0
	c-2-6.5-4-11.9-6-17.1C689.4,438.4,689.2,437.8,689.1,437.5L689.1,437.5z M398.3,440.5c4.6,0,6.3,4.8,6.3,9.2c0,3-0.6,9.8-6.3,9.8
	s-6.2-7.5-6.2-9.8C392.1,445.3,393.7,440.5,398.3,440.5z M484.1,440.5c1.2-0.1,2.4,0.4,3.3,1.3c1,1.1,1.5,3,1.4,5.3
	c-0.1,0.2-0.2,0.3-10,0.3c-0.1,0-0.3-0.8-0.3-0.8l0,0c-0.1-1.7,0.5-3.3,1.7-4.5C481.2,441,482.6,440.5,484.1,440.5z M594.9,440.5
	c4.6,0,6.3,4.8,6.3,9.2c0,3-0.6,9.8-6.3,9.8c-5.8,0-6.3-7.5-6.3-9.8C588.6,445.3,590.2,440.5,594.9,440.5L594.9,440.5z M637.5,440.5
	c4.6,0,6.3,4.8,6.3,9.2c0,3-0.6,9.8-6.3,9.8s-6.3-7.5-6.3-9.8C631.2,445.3,632.9,440.5,637.5,440.5z M667,440.8
	c4.3,0,6.2,4.4,6.2,8.5c0,4.6-1.7,9.9-6.5,9.9c-4.1,0-6-5-6-9.7C660.7,444,663,440.8,667,440.8L667,440.8z"/>
</svg>
